<svg id="svg" version="1.1" xmlns="http://www.w3.org/2000/svg" xmlns:xlink="http://www.w3.org/1999/xlink" width="400" height="66.66666666666667" viewBox="0, 0, 400,66.66666666666667"><g id="svgg"><path id="path0" d="M221.333 0.333 C 221.333 0.641,221.222 0.667,219.867 0.667 C 218.262 0.667,218.000 0.788,218.000 1.533 C 218.000 1.985,217.972 2.000,217.125 2.002 C 215.789 2.006,215.523 2.122,215.404 2.759 C 215.311 3.256,215.235 3.321,214.691 3.366 C 214.120 3.414,214.080 3.454,214.032 4.042 C 213.980 4.665,213.978 4.667,213.198 4.683 C 211.955 4.710,211.619 4.861,211.463 5.464 C 211.348 5.905,211.242 6.000,210.862 6.000 C 210.277 6.000,210.000 6.275,210.000 6.857 C 210.000 7.264,209.933 7.319,209.375 7.365 C 208.784 7.414,208.747 7.451,208.698 8.042 C 208.652 8.599,208.597 8.667,208.190 8.667 C 207.613 8.667,207.333 8.943,207.333 9.515 C 207.333 9.892,207.244 9.980,206.768 10.069 C 206.122 10.190,206.006 10.451,206.002 11.782 L 206.000 12.647 205.375 12.698 C 204.784 12.747,204.747 12.784,204.698 13.375 C 204.652 13.933,204.597 14.000,204.190 14.000 C 203.493 14.000,203.333 14.284,203.333 15.523 L 203.333 16.647 202.708 16.698 L 202.083 16.750 202.035 18.042 C 201.986 19.329,201.984 19.333,201.526 19.333 C 200.763 19.333,200.667 19.579,200.667 21.533 L 200.667 23.333 200.200 23.333 C 199.374 23.333,199.333 23.495,199.333 26.781 C 199.333 29.373,199.386 30.023,199.688 31.121 C 200.098 32.618,200.060 34.701,199.597 36.035 C 199.381 36.657,199.334 37.351,199.371 39.368 L 199.417 41.917 200.036 41.968 L 200.656 42.020 200.703 43.968 L 200.750 45.917 201.368 45.968 L 201.986 46.019 202.035 47.301 L 202.083 48.583 202.701 48.635 L 203.320 48.686 203.368 49.968 L 203.417 51.250 204.019 51.300 L 204.621 51.351 204.727 52.367 C 204.847 53.514,205.036 53.833,205.594 53.833 C 205.930 53.833,205.988 53.927,206.032 54.542 C 206.082 55.227,206.103 55.252,206.699 55.301 C 207.277 55.349,207.317 55.390,207.366 55.968 C 207.414 56.546,207.454 56.586,208.032 56.634 C 208.610 56.683,208.651 56.723,208.699 57.301 C 208.747 57.879,208.787 57.920,209.366 57.968 C 209.944 58.016,209.984 58.056,210.032 58.634 C 210.080 59.213,210.121 59.253,210.699 59.301 C 211.277 59.349,211.317 59.390,211.366 59.968 C 211.415 60.563,211.440 60.585,212.125 60.635 C 212.740 60.679,212.833 60.737,212.833 61.073 C 212.833 61.631,213.153 61.820,214.300 61.939 L 215.316 62.046 215.366 62.648 L 215.417 63.250 216.699 63.299 L 217.981 63.347 218.032 63.965 L 218.083 64.583 219.365 64.632 L 220.647 64.680 220.699 65.299 L 220.750 65.917 222.708 65.964 C 224.529 66.007,224.667 66.034,224.667 66.339 C 224.667 66.661,224.828 66.667,234.000 66.667 C 243.222 66.667,243.333 66.663,243.333 66.333 C 243.333 66.021,243.444 66.000,245.071 66.000 C 246.961 66.000,247.333 65.848,247.333 65.078 C 247.333 64.698,247.388 64.679,248.625 64.632 L 249.917 64.583 249.968 63.958 L 250.020 63.333 251.143 63.333 C 252.382 63.333,252.667 63.173,252.667 62.477 C 252.667 62.069,252.734 62.015,253.292 61.968 C 253.878 61.920,253.920 61.879,253.967 61.315 L 254.017 60.712 255.033 60.606 C 256.185 60.486,256.500 60.298,256.500 59.730 C 256.500 59.403,256.585 59.333,256.988 59.333 C 257.582 59.333,258.000 58.950,258.000 58.405 C 258.000 58.073,258.084 58.000,258.467 58.000 C 259.059 58.000,259.333 57.726,259.333 57.133 C 259.333 56.750,259.406 56.667,259.738 56.667 C 260.279 56.667,260.667 56.250,260.667 55.668 C 260.667 55.333,260.864 54.999,261.333 54.539 C 261.866 54.016,262.000 53.765,262.000 53.286 C 262.000 52.714,262.028 52.684,262.625 52.635 C 263.214 52.586,263.253 52.548,263.301 51.970 C 263.345 51.439,263.420 51.341,263.853 51.246 C 264.451 51.114,264.667 50.650,264.667 49.489 C 264.667 48.729,264.698 48.667,265.071 48.667 C 265.776 48.667,266.000 48.262,266.000 46.984 C 266.000 45.895,266.026 45.815,266.425 45.663 C 266.675 45.568,266.932 45.279,267.049 44.959 L 267.249 44.417 267.333 45.167 C 267.414 45.894,267.435 45.918,268.035 45.968 L 268.653 46.019 268.701 47.301 L 268.750 48.583 269.368 48.635 L 269.986 48.686 270.035 49.968 L 270.083 51.250 270.685 51.300 L 271.288 51.351 271.394 52.367 C 271.514 53.514,271.703 53.833,272.261 53.833 C 272.597 53.833,272.654 53.927,272.699 54.542 C 272.748 55.227,272.770 55.252,273.366 55.301 C 273.944 55.349,273.984 55.390,274.032 55.968 C 274.080 56.546,274.121 56.586,274.699 56.634 C 275.277 56.683,275.317 56.723,275.366 57.301 C 275.414 57.879,275.454 57.920,276.032 57.968 C 276.610 58.016,276.651 58.056,276.699 58.634 C 276.747 59.213,276.787 59.253,277.366 59.301 C 277.944 59.349,277.984 59.390,278.032 59.968 C 278.082 60.563,278.106 60.585,278.792 60.635 C 279.407 60.679,279.500 60.737,279.500 61.073 C 279.500 61.631,279.820 61.820,280.967 61.939 L 281.983 62.046 282.033 62.648 L 282.083 63.250 283.365 63.299 L 284.647 63.347 284.699 63.965 L 284.750 64.583 286.032 64.632 L 287.314 64.680 287.365 65.299 L 287.417 65.917 289.375 65.964 C 291.196 66.007,291.333 66.034,291.333 66.339 C 291.333 66.661,291.495 66.667,300.667 66.667 C 309.889 66.667,310.000 66.663,310.000 66.333 C 310.000 66.021,310.111 66.000,311.738 66.000 C 313.628 66.000,314.000 65.848,314.000 65.078 C 314.000 64.698,314.055 64.679,315.292 64.632 L 316.583 64.583 316.635 63.958 L 316.687 63.333 317.810 63.333 C 319.049 63.333,319.333 63.173,319.333 62.477 C 319.333 62.069,319.401 62.015,319.958 61.968 C 320.545 61.920,320.586 61.879,320.634 61.315 L 320.684 60.712 321.700 60.606 C 322.852 60.486,323.167 60.298,323.167 59.730 C 323.167 59.403,323.252 59.333,323.655 59.333 C 324.248 59.333,324.667 58.950,324.667 58.405 C 324.667 58.073,324.750 58.000,325.133 58.000 C 325.726 58.000,326.000 57.726,326.000 57.133 C 326.000 56.750,326.073 56.667,326.405 56.667 C 326.946 56.667,327.333 56.250,327.333 55.668 C 327.333 55.333,327.531 54.999,328.000 54.539 C 328.533 54.016,328.667 53.765,328.667 53.286 C 328.667 52.714,328.695 52.684,329.292 52.635 C 329.880 52.586,329.920 52.548,329.968 51.970 C 330.012 51.439,330.087 51.341,330.519 51.246 C 331.118 51.114,331.333 50.650,331.333 49.489 C 331.333 48.729,331.364 48.667,331.738 48.667 C 332.443 48.667,332.667 48.262,332.667 46.984 C 332.667 45.895,332.692 45.815,333.092 45.663 C 333.342 45.568,333.599 45.279,333.716 44.959 L 333.915 44.417 333.999 45.167 C 334.081 45.894,334.102 45.918,334.701 45.968 L 335.320 46.019 335.368 47.301 L 335.417 48.583 336.035 48.635 L 336.653 48.686 336.701 49.968 L 336.750 51.250 337.352 51.300 L 337.954 51.351 338.061 52.367 C 338.180 53.514,338.369 53.833,338.927 53.833 C 339.263 53.833,339.321 53.927,339.365 54.542 C 339.415 55.227,339.437 55.252,340.032 55.301 C 340.610 55.349,340.651 55.390,340.699 55.968 C 340.747 56.546,340.787 56.586,341.366 56.634 C 341.944 56.683,341.984 56.723,342.032 57.301 C 342.080 57.879,342.121 57.920,342.699 57.968 C 343.277 58.016,343.317 58.056,343.366 58.634 C 343.414 59.213,343.454 59.253,344.032 59.301 C 344.610 59.349,344.651 59.390,344.699 59.968 C 344.748 60.563,344.773 60.585,345.458 60.635 C 346.073 60.679,346.167 60.737,346.167 61.073 C 346.167 61.631,346.486 61.820,347.633 61.939 L 348.649 62.046 348.700 62.648 L 348.750 63.250 350.032 63.299 L 351.314 63.347 351.365 63.965 L 351.417 64.583 352.699 64.632 L 353.981 64.680 354.032 65.299 L 354.083 65.917 356.042 65.964 C 357.862 66.007,358.000 66.034,358.000 66.339 C 358.000 66.661,358.161 66.667,367.333 66.667 C 376.556 66.667,376.667 66.663,376.667 66.333 C 376.667 66.021,376.778 66.000,378.405 66.000 C 380.295 66.000,380.667 65.848,380.667 65.078 C 380.667 64.698,380.722 64.679,381.958 64.632 L 383.250 64.583 383.302 63.958 L 383.353 63.333 384.477 63.333 C 385.716 63.333,386.000 63.173,386.000 62.477 C 386.000 62.069,386.067 62.015,386.625 61.968 C 387.211 61.920,387.253 61.879,387.300 61.315 L 387.351 60.712 388.367 60.606 C 389.518 60.486,389.833 60.298,389.833 59.730 C 389.833 59.403,389.919 59.333,390.321 59.333 C 390.915 59.333,391.333 58.950,391.333 58.405 C 391.333 58.073,391.417 58.000,391.800 58.000 C 392.392 58.000,392.667 57.726,392.667 57.133 C 392.667 56.750,392.739 56.667,393.071 56.667 C 393.612 56.667,394.000 56.250,394.000 55.668 C 394.000 55.333,394.198 54.999,394.667 54.539 C 395.200 54.016,395.333 53.765,395.333 53.286 C 395.333 52.714,395.362 52.684,395.958 52.635 C 396.547 52.586,396.586 52.548,396.634 51.970 C 396.678 51.439,396.754 51.341,397.186 51.246 C 397.785 51.114,398.000 50.650,398.000 49.489 C 398.000 48.729,398.031 48.667,398.405 48.667 C 399.109 48.667,399.333 48.261,399.333 46.988 C 399.333 45.944,399.365 45.833,399.667 45.833 C 399.992 45.833,400.000 45.722,400.000 41.250 L 400.000 36.667 399.362 36.667 C 398.713 36.667,398.174 36.270,397.947 35.625 C 397.855 35.366,397.583 35.333,395.517 35.333 C 392.991 35.333,392.667 35.439,392.667 36.262 L 392.667 36.667 388.010 36.667 L 383.353 36.667 383.302 36.042 L 383.250 35.417 381.301 35.370 L 379.353 35.323 379.301 34.703 L 379.250 34.083 377.968 34.035 L 376.686 33.986 376.635 33.368 L 376.583 32.750 375.301 32.701 L 374.019 32.653 373.968 32.035 C 373.920 31.453,373.880 31.414,373.301 31.366 C 372.723 31.317,372.683 31.277,372.634 30.699 C 372.586 30.121,372.546 30.080,371.968 30.032 C 371.390 29.984,371.349 29.944,371.301 29.366 C 371.253 28.787,371.213 28.747,370.634 28.699 C 370.056 28.651,370.016 28.610,369.968 28.032 C 369.920 27.454,369.879 27.414,369.301 27.366 C 368.723 27.317,368.683 27.277,368.634 26.699 C 368.586 26.119,368.547 26.080,367.958 26.032 L 367.333 25.980 367.333 24.919 C 367.333 23.744,367.093 23.333,366.405 23.333 C 366.018 23.333,366.000 23.285,366.000 22.262 C 366.000 21.077,365.761 20.667,365.071 20.667 C 364.669 20.667,364.667 20.658,364.667 18.929 C 364.667 17.035,364.516 16.667,363.738 16.667 L 363.333 16.667 363.333 12.013 L 363.333 7.360 363.843 7.248 C 365.106 6.970,365.053 1.195,363.785 0.868 C 363.417 0.773,363.233 0.616,363.197 0.365 C 363.116 -0.185,354.667 -0.217,354.667 0.333 C 354.667 0.641,354.556 0.667,353.200 0.667 C 351.595 0.667,351.333 0.788,351.333 1.533 C 351.333 1.985,351.305 2.000,350.458 2.002 C 349.122 2.006,348.857 2.122,348.737 2.759 C 348.644 3.256,348.568 3.321,348.025 3.366 C 347.453 3.414,347.414 3.454,347.365 4.042 C 347.313 4.665,347.311 4.667,346.532 4.683 C 345.289 4.710,344.952 4.861,344.796 5.464 C 344.682 5.905,344.576 6.000,344.195 6.000 C 343.610 6.000,343.333 6.275,343.333 6.857 C 343.333 7.264,343.266 7.319,342.708 7.365 C 342.117 7.414,342.081 7.451,342.032 8.042 C 341.985 8.599,341.931 8.667,341.523 8.667 C 340.946 8.667,340.667 8.943,340.667 9.515 C 340.667 9.892,340.578 9.980,340.102 10.069 C 339.456 10.190,339.339 10.451,339.336 11.782 L 339.333 12.647 338.708 12.698 C 338.117 12.747,338.081 12.784,338.032 13.375 C 337.985 13.933,337.931 14.000,337.523 14.000 C 336.827 14.000,336.667 14.284,336.667 15.523 L 336.667 16.647 336.042 16.698 L 335.417 16.750 335.368 18.042 C 335.319 19.329,335.318 19.333,334.860 19.333 C 334.096 19.333,334.000 19.579,334.000 21.533 L 334.000 23.333 333.533 23.333 C 332.657 23.333,332.667 23.254,332.667 30.200 C 332.667 36.350,332.652 36.667,332.362 36.667 C 332.036 36.667,331.448 36.101,331.280 35.625 C 331.189 35.366,330.916 35.333,328.850 35.333 C 326.324 35.333,326.000 35.439,326.000 36.262 L 326.000 36.667 321.343 36.667 L 316.687 36.667 316.635 36.042 L 316.583 35.417 314.635 35.370 L 312.686 35.323 312.635 34.703 L 312.583 34.083 311.301 34.035 L 310.019 33.986 309.968 33.368 L 309.917 32.750 308.635 32.701 L 307.353 32.653 307.301 32.035 C 307.253 31.453,307.213 31.414,306.634 31.366 C 306.056 31.317,306.016 31.277,305.968 30.699 C 305.920 30.121,305.879 30.080,305.301 30.032 C 304.723 29.984,304.683 29.944,304.634 29.366 C 304.586 28.787,304.546 28.747,303.968 28.699 C 303.390 28.651,303.349 28.610,303.301 28.032 C 303.253 27.454,303.213 27.414,302.634 27.366 C 302.056 27.317,302.016 27.277,301.968 26.699 C 301.920 26.119,301.881 26.080,301.292 26.032 L 300.667 25.980 300.667 24.919 C 300.667 23.744,300.426 23.333,299.738 23.333 C 299.351 23.333,299.333 23.285,299.333 22.262 C 299.333 21.077,299.095 20.667,298.405 20.667 C 298.002 20.667,298.000 20.658,298.000 18.929 C 298.000 17.035,297.849 16.667,297.071 16.667 L 296.667 16.667 296.667 12.013 L 296.667 7.360 297.177 7.248 C 298.439 6.970,298.386 1.195,297.118 0.868 C 296.750 0.773,296.567 0.616,296.530 0.365 C 296.450 -0.185,288.000 -0.217,288.000 0.333 C 288.000 0.641,287.889 0.667,286.533 0.667 C 284.929 0.667,284.667 0.788,284.667 1.533 C 284.667 1.985,284.638 2.000,283.792 2.002 C 282.455 2.006,282.190 2.122,282.071 2.759 C 281.977 3.256,281.901 3.321,281.358 3.366 C 280.786 3.414,280.747 3.454,280.698 4.042 C 280.647 4.665,280.644 4.667,279.865 4.683 C 278.622 4.710,278.286 4.861,278.129 5.464 C 278.015 5.905,277.909 6.000,277.529 6.000 C 276.944 6.000,276.667 6.275,276.667 6.857 C 276.667 7.264,276.599 7.319,276.042 7.365 C 275.451 7.414,275.414 7.451,275.365 8.042 C 275.319 8.599,275.264 8.667,274.857 8.667 C 274.279 8.667,274.000 8.943,274.000 9.515 C 274.000 9.892,273.911 9.980,273.435 10.069 C 272.789 10.190,272.672 10.451,272.669 11.782 L 272.667 12.647 272.042 12.698 C 271.451 12.747,271.414 12.784,271.365 13.375 C 271.319 13.933,271.264 14.000,270.857 14.000 C 270.160 14.000,270.000 14.284,270.000 15.523 L 270.000 16.647 269.375 16.698 L 268.750 16.750 268.701 18.042 C 268.653 19.329,268.651 19.333,268.193 19.333 C 267.430 19.333,267.333 19.579,267.333 21.533 L 267.333 23.333 266.867 23.333 C 265.990 23.333,266.000 23.254,266.000 30.200 C 266.000 36.350,265.985 36.667,265.696 36.667 C 265.369 36.667,264.781 36.101,264.613 35.625 C 264.522 35.366,264.249 35.333,262.184 35.333 C 259.657 35.333,259.333 35.439,259.333 36.262 L 259.333 36.667 254.677 36.667 L 250.020 36.667 249.968 36.042 L 249.917 35.417 247.968 35.370 L 246.020 35.323 245.968 34.703 L 245.917 34.083 244.635 34.035 L 243.353 33.986 243.301 33.368 L 243.250 32.750 241.968 32.701 L 240.686 32.653 240.635 32.035 C 240.586 31.453,240.547 31.414,239.968 31.366 C 239.390 31.317,239.349 31.277,239.301 30.699 C 239.253 30.121,239.213 30.080,238.634 30.032 C 238.056 29.984,238.016 29.944,237.968 29.366 C 237.920 28.787,237.879 28.747,237.301 28.699 C 236.723 28.651,236.683 28.610,236.634 28.032 C 236.586 27.454,236.546 27.414,235.968 27.366 C 235.390 27.317,235.349 27.277,235.301 26.699 C 235.253 26.119,235.214 26.080,234.625 26.032 L 234.000 25.980 234.000 24.919 C 234.000 23.744,233.760 23.333,233.071 23.333 C 232.685 23.333,232.667 23.285,232.667 22.262 C 232.667 21.077,232.428 20.667,231.738 20.667 C 231.335 20.667,231.333 20.658,231.333 18.929 C 231.333 17.035,231.182 16.667,230.405 16.667 L 230.000 16.667 230.000 12.013 L 230.000 7.360 230.510 7.248 C 231.773 6.970,231.720 1.195,230.451 0.868 C 230.083 0.773,229.900 0.616,229.863 0.365 C 229.783 -0.185,221.333 -0.217,221.333 0.333 M219.500 13.917 C 219.500 14.531,219.966 15.167,220.417 15.167 C 220.630 15.167,220.667 15.635,220.667 18.383 C 220.667 21.849,220.703 22.000,221.533 22.000 L 222.000 22.000 222.002 23.542 C 222.005 25.588,222.073 25.801,222.768 25.931 L 223.333 26.037 223.333 27.152 C 223.333 28.386,223.494 28.667,224.200 28.667 C 224.633 28.667,224.667 28.714,224.667 29.333 C 224.667 29.868,224.727 30.000,224.971 30.000 C 225.543 30.000,225.976 30.680,226.032 31.667 L 226.083 32.583 226.699 32.634 C 227.277 32.683,227.317 32.723,227.366 33.301 C 227.414 33.881,227.453 33.920,228.042 33.968 C 228.649 34.019,228.667 34.038,228.667 34.677 C 228.667 35.332,228.668 35.333,229.333 35.333 L 230.000 35.333 230.000 36.000 L 230.000 36.667 230.667 36.667 L 231.333 36.667 231.333 37.333 C 231.333 37.998,231.335 38.000,231.990 38.000 C 232.628 38.000,232.648 38.017,232.698 38.625 C 232.747 39.214,232.785 39.253,233.366 39.301 C 233.944 39.349,233.984 39.390,234.032 39.968 L 234.083 40.583 235.000 40.635 C 235.986 40.691,236.667 41.124,236.667 41.696 C 236.667 41.940,236.799 42.000,237.333 42.000 C 237.928 42.000,238.000 42.044,238.000 42.405 C 238.000 43.091,238.411 43.333,239.577 43.333 L 240.630 43.333 240.736 43.898 C 240.866 44.593,241.078 44.661,243.125 44.664 C 244.646 44.667,244.667 44.672,244.667 45.071 C 244.667 45.974,244.808 46.000,249.641 46.000 L 254.092 46.000 254.029 46.657 C 253.975 47.229,253.903 47.328,253.473 47.423 C 252.883 47.552,252.667 48.022,252.667 49.178 L 252.667 50.000 252.000 50.000 L 251.333 50.000 251.333 50.667 L 251.333 51.333 250.511 51.333 C 249.350 51.333,248.886 51.549,248.754 52.147 C 248.659 52.580,248.561 52.655,248.030 52.699 C 247.452 52.747,247.414 52.786,247.365 53.375 L 247.313 54.000 246.252 54.000 C 245.077 54.000,244.667 54.240,244.667 54.929 C 244.667 55.317,244.622 55.333,243.533 55.333 C 242.280 55.333,242.000 55.491,242.000 56.200 L 242.000 56.667 239.595 56.667 C 236.985 56.667,236.667 56.767,236.667 57.595 L 236.667 58.000 234.013 58.000 L 231.360 58.000 231.248 57.490 C 231.092 56.780,230.669 56.667,228.169 56.667 L 226.026 56.667 225.914 56.157 C 225.767 55.484,225.326 55.333,223.499 55.333 L 222.020 55.333 221.968 54.708 C 221.919 54.117,221.883 54.081,221.292 54.032 C 220.760 53.988,220.667 53.921,220.667 53.585 C 220.667 52.905,220.252 52.667,219.071 52.667 L 218.000 52.667 218.000 52.000 C 218.000 51.335,217.998 51.333,217.343 51.333 C 216.705 51.333,216.685 51.316,216.635 50.708 C 216.586 50.119,216.548 50.080,215.968 50.032 C 215.390 49.984,215.349 49.944,215.301 49.366 C 215.253 48.790,215.211 48.747,214.647 48.700 C 214.047 48.649,214.045 48.646,213.949 47.724 C 213.849 46.749,213.488 46.167,212.984 46.167 C 212.752 46.167,212.674 46.008,212.635 45.458 C 212.585 44.772,212.564 44.748,211.965 44.699 L 211.347 44.647 211.299 43.365 L 211.250 42.083 210.625 42.032 L 210.000 41.980 210.000 39.585 C 210.000 36.985,209.899 36.667,209.071 36.667 L 208.667 36.667 208.667 32.667 L 208.667 28.667 209.133 28.667 C 209.910 28.667,210.000 28.429,210.000 26.383 C 210.000 24.511,210.002 24.500,210.396 24.500 C 211.048 24.500,211.212 24.104,211.298 22.336 L 211.377 20.684 211.980 20.634 C 212.546 20.586,212.587 20.545,212.635 19.958 C 212.681 19.401,212.736 19.333,213.143 19.333 C 213.744 19.333,214.000 19.053,214.000 18.396 C 214.000 17.989,214.162 17.700,214.667 17.205 C 215.204 16.679,215.333 16.434,215.333 15.943 C 215.333 15.343,215.344 15.333,216.000 15.333 L 216.667 15.333 216.667 14.667 L 216.667 14.000 217.542 13.998 C 218.650 13.995,219.167 13.857,219.167 13.564 C 219.167 13.437,219.242 13.333,219.333 13.333 C 219.425 13.333,219.500 13.596,219.500 13.917 M286.167 13.917 C 286.167 14.531,286.632 15.167,287.083 15.167 C 287.297 15.167,287.333 15.635,287.333 18.383 C 287.333 21.849,287.369 22.000,288.200 22.000 L 288.667 22.000 288.669 23.542 C 288.672 25.588,288.740 25.801,289.435 25.931 L 290.000 26.037 290.000 27.152 C 290.000 28.386,290.161 28.667,290.867 28.667 C 291.300 28.667,291.333 28.714,291.333 29.333 C 291.333 29.868,291.394 30.000,291.638 30.000 C 292.210 30.000,292.642 30.680,292.698 31.667 L 292.750 32.583 293.366 32.634 C 293.944 32.683,293.984 32.723,294.032 33.301 C 294.080 33.881,294.119 33.920,294.708 33.968 C 295.316 34.019,295.333 34.038,295.333 34.677 C 295.333 35.332,295.335 35.333,296.000 35.333 L 296.667 35.333 296.667 36.000 L 296.667 36.667 297.333 36.667 L 298.000 36.667 298.000 37.333 C 298.000 37.998,298.002 38.000,298.657 38.000 C 299.295 38.000,299.315 38.017,299.365 38.625 C 299.414 39.214,299.452 39.253,300.032 39.301 C 300.610 39.349,300.651 39.390,300.699 39.968 L 300.750 40.583 301.667 40.635 C 302.653 40.691,303.333 41.124,303.333 41.696 C 303.333 41.940,303.466 42.000,304.000 42.000 C 304.595 42.000,304.667 42.044,304.667 42.405 C 304.667 43.091,305.077 43.333,306.243 43.333 L 307.296 43.333 307.402 43.898 C 307.533 44.593,307.745 44.661,309.792 44.664 C 311.312 44.667,311.333 44.672,311.333 45.071 C 311.333 45.974,311.475 46.000,316.308 46.000 L 320.759 46.000 320.696 46.657 C 320.642 47.229,320.570 47.328,320.140 47.423 C 319.549 47.552,319.333 48.022,319.333 49.178 L 319.333 50.000 318.667 50.000 L 318.000 50.000 318.000 50.667 L 318.000 51.333 317.178 51.333 C 316.017 51.333,315.552 51.549,315.421 52.147 C 315.326 52.580,315.227 52.655,314.697 52.699 C 314.119 52.747,314.080 52.786,314.032 53.375 L 313.980 54.000 312.919 54.000 C 311.744 54.000,311.333 54.240,311.333 54.929 C 311.333 55.317,311.289 55.333,310.200 55.333 C 308.946 55.333,308.667 55.491,308.667 56.200 L 308.667 56.667 306.262 56.667 C 303.651 56.667,303.333 56.767,303.333 57.595 L 303.333 58.000 300.680 58.000 L 298.026 58.000 297.914 57.490 C 297.758 56.780,297.336 56.667,294.836 56.667 L 292.693 56.667 292.581 56.157 C 292.433 55.484,291.992 55.333,290.166 55.333 L 288.687 55.333 288.635 54.708 C 288.586 54.117,288.549 54.081,287.958 54.032 C 287.427 53.988,287.333 53.921,287.333 53.585 C 287.333 52.905,286.919 52.667,285.738 52.667 L 284.667 52.667 284.667 52.000 C 284.667 51.335,284.665 51.333,284.010 51.333 C 283.372 51.333,283.352 51.316,283.302 50.708 C 283.253 50.119,283.215 50.080,282.634 50.032 C 282.056 49.984,282.016 49.944,281.968 49.366 C 281.920 48.790,281.878 48.747,281.314 48.700 C 280.713 48.649,280.711 48.646,280.616 47.724 C 280.515 46.749,280.154 46.167,279.650 46.167 C 279.419 46.167,279.341 46.008,279.301 45.458 C 279.252 44.772,279.231 44.748,278.632 44.699 L 278.014 44.647 277.965 43.365 L 277.917 42.083 277.292 42.032 L 276.667 41.980 276.667 39.585 C 276.667 36.985,276.565 36.667,275.738 36.667 L 275.333 36.667 275.333 32.667 L 275.333 28.667 275.800 28.667 C 276.577 28.667,276.667 28.429,276.667 26.383 C 276.667 24.511,276.669 24.500,277.063 24.500 C 277.714 24.500,277.879 24.104,277.964 22.336 L 278.044 20.684 278.647 20.634 C 279.213 20.586,279.253 20.545,279.302 19.958 C 279.348 19.401,279.403 19.333,279.810 19.333 C 280.411 19.333,280.667 19.053,280.667 18.396 C 280.667 17.989,280.829 17.700,281.333 17.205 C 281.870 16.679,282.000 16.434,282.000 15.943 C 282.000 15.343,282.010 15.333,282.667 15.333 L 283.333 15.333 283.333 14.667 L 283.333 14.000 284.208 13.998 C 285.317 13.995,285.833 13.857,285.833 13.564 C 285.833 13.437,285.908 13.333,286.000 13.333 C 286.092 13.333,286.167 13.596,286.167 13.917 M352.833 13.917 C 352.833 14.531,353.299 15.167,353.750 15.167 C 353.964 15.167,354.000 15.635,354.000 18.383 C 354.000 21.849,354.036 22.000,354.867 22.000 L 355.333 22.000 355.336 23.542 C 355.339 25.588,355.407 25.801,356.102 25.931 L 356.667 26.037 356.667 27.152 C 356.667 28.386,356.827 28.667,357.533 28.667 C 357.967 28.667,358.000 28.714,358.000 29.333 C 358.000 29.868,358.060 30.000,358.304 30.000 C 358.876 30.000,359.309 30.680,359.365 31.667 L 359.417 32.583 360.032 32.634 C 360.610 32.683,360.651 32.723,360.699 33.301 C 360.747 33.881,360.786 33.920,361.375 33.968 C 361.983 34.019,362.000 34.038,362.000 34.677 C 362.000 35.332,362.002 35.333,362.667 35.333 L 363.333 35.333 363.333 36.000 L 363.333 36.667 364.000 36.667 L 364.667 36.667 364.667 37.333 C 364.667 37.998,364.668 38.000,365.323 38.000 C 365.962 38.000,365.981 38.017,366.032 38.625 C 366.080 39.214,366.119 39.253,366.699 39.301 C 367.277 39.349,367.317 39.390,367.366 39.968 L 367.417 40.583 368.333 40.635 C 369.320 40.691,370.000 41.124,370.000 41.696 C 370.000 41.940,370.132 42.000,370.667 42.000 C 371.261 42.000,371.333 42.044,371.333 42.405 C 371.333 43.091,371.744 43.333,372.910 43.333 L 373.963 43.333 374.069 43.898 C 374.199 44.593,374.412 44.661,376.458 44.664 C 377.979 44.667,378.000 44.672,378.000 45.071 C 378.000 45.974,378.142 46.000,382.975 46.000 L 387.425 46.000 387.363 46.657 C 387.308 47.229,387.236 47.328,386.807 47.423 C 386.216 47.552,386.000 48.022,386.000 49.178 L 386.000 50.000 385.333 50.000 L 384.667 50.000 384.667 50.667 L 384.667 51.333 383.844 51.333 C 382.684 51.333,382.219 51.549,382.088 52.147 C 381.993 52.580,381.894 52.655,381.364 52.699 C 380.786 52.747,380.747 52.786,380.698 53.375 L 380.647 54.000 379.585 54.000 C 378.410 54.000,378.000 54.240,378.000 54.929 C 378.000 55.317,377.956 55.333,376.867 55.333 C 375.613 55.333,375.333 55.491,375.333 56.200 L 375.333 56.667 372.929 56.667 C 370.318 56.667,370.000 56.767,370.000 57.595 L 370.000 58.000 367.347 58.000 L 364.693 58.000 364.581 57.490 C 364.425 56.780,364.002 56.667,361.502 56.667 L 359.360 56.667 359.248 56.157 C 359.100 55.484,358.659 55.333,356.833 55.333 L 355.353 55.333 355.302 54.708 C 355.253 54.117,355.216 54.081,354.625 54.032 C 354.093 53.988,354.000 53.921,354.000 53.585 C 354.000 52.905,353.585 52.667,352.405 52.667 L 351.333 52.667 351.333 52.000 C 351.333 51.335,351.332 51.333,350.677 51.333 C 350.038 51.333,350.019 51.316,349.968 50.708 C 349.920 50.119,349.881 50.080,349.301 50.032 C 348.723 49.984,348.683 49.944,348.634 49.366 C 348.587 48.790,348.544 48.747,347.981 48.700 C 347.380 48.649,347.378 48.646,347.283 47.724 C 347.182 46.749,346.821 46.167,346.317 46.167 C 346.086 46.167,346.008 46.008,345.968 45.458 C 345.918 44.772,345.897 44.748,345.299 44.699 L 344.680 44.647 344.632 43.365 L 344.583 42.083 343.958 42.032 L 343.333 41.980 343.333 39.585 C 343.333 36.985,343.232 36.667,342.405 36.667 L 342.000 36.667 342.000 32.667 L 342.000 28.667 342.467 28.667 C 343.243 28.667,343.333 28.429,343.333 26.383 C 343.333 24.511,343.336 24.500,343.730 24.500 C 344.381 24.500,344.546 24.104,344.631 22.336 L 344.710 20.684 345.314 20.634 C 345.880 20.586,345.920 20.545,345.968 19.958 C 346.015 19.401,346.069 19.333,346.477 19.333 C 347.078 19.333,347.333 19.053,347.333 18.396 C 347.333 17.989,347.495 17.700,348.000 17.205 C 348.537 16.679,348.667 16.434,348.667 15.943 C 348.667 15.343,348.677 15.333,349.333 15.333 L 350.000 15.333 350.000 14.667 L 350.000 14.000 350.875 13.998 C 351.984 13.995,352.500 13.857,352.500 13.564 C 352.500 13.437,352.575 13.333,352.667 13.333 C 352.758 13.333,352.833 13.596,352.833 13.917 " stroke="none" fill="#fcfcfc" fill-rule="evenodd"></path><path id="path1" d="M30.000 0.323 C 30.000 0.577,29.865 0.658,29.375 0.698 L 28.750 0.750 28.750 6.954 C 28.750 14.142,28.663 13.771,30.389 13.949 C 31.276 14.041,31.333 14.074,31.333 14.490 C 31.333 15.221,31.599 15.333,33.333 15.333 C 35.068 15.333,35.333 15.221,35.333 14.489 C 35.333 14.063,35.375 14.042,36.432 13.957 C 38.025 13.830,37.917 14.329,37.917 7.117 L 37.917 0.750 37.292 0.698 C 36.802 0.658,36.667 0.577,36.667 0.323 C 36.667 0.014,36.521 0.000,33.333 0.000 C 30.146 0.000,30.000 0.014,30.000 0.323 M96.667 0.323 C 96.667 0.577,96.531 0.658,96.042 0.698 L 95.417 0.750 95.417 6.954 C 95.417 14.142,95.330 13.771,97.055 13.949 C 97.943 14.041,98.000 14.074,98.000 14.490 C 98.000 15.221,98.266 15.333,100.000 15.333 C 101.735 15.333,102.000 15.221,102.000 14.489 C 102.000 14.063,102.042 14.042,103.099 13.957 C 104.692 13.830,104.583 14.329,104.583 7.117 L 104.583 0.750 103.958 0.698 C 103.469 0.658,103.333 0.577,103.333 0.323 C 103.333 0.014,103.188 0.000,100.000 0.000 C 96.812 0.000,96.667 0.014,96.667 0.323 M163.333 0.323 C 163.333 0.577,163.198 0.658,162.708 0.698 L 162.083 0.750 162.083 6.954 C 162.083 14.142,161.996 13.771,163.722 13.949 C 164.609 14.041,164.667 14.074,164.667 14.490 C 164.667 15.221,164.932 15.333,166.667 15.333 C 168.401 15.333,168.667 15.221,168.667 14.489 C 168.667 14.063,168.709 14.042,169.765 13.957 C 171.358 13.830,171.250 14.329,171.250 7.117 L 171.250 0.750 170.625 0.698 C 170.135 0.658,170.000 0.577,170.000 0.323 C 170.000 0.014,169.854 0.000,166.667 0.000 C 163.479 0.000,163.333 0.014,163.333 0.323 M11.533 7.533 C 11.423 7.643,11.333 7.940,11.333 8.193 C 11.333 8.651,11.329 8.653,10.042 8.701 L 8.750 8.750 8.667 9.416 C 8.594 10.000,8.522 10.092,8.085 10.167 C 7.464 10.274,7.380 10.601,7.353 13.030 C 7.332 14.966,7.475 15.333,8.252 15.333 C 8.588 15.333,8.654 15.427,8.698 15.958 C 8.747 16.547,8.785 16.586,9.366 16.634 C 9.944 16.683,9.984 16.723,10.032 17.301 C 10.080 17.879,10.121 17.920,10.699 17.968 C 11.277 18.016,11.317 18.056,11.366 18.634 C 11.414 19.213,11.454 19.253,12.032 19.301 C 12.610 19.349,12.651 19.390,12.699 19.968 C 12.747 20.546,12.787 20.586,13.366 20.634 C 13.944 20.683,13.984 20.723,14.032 21.301 L 14.083 21.917 17.145 21.962 C 20.460 22.011,20.667 21.964,20.667 21.156 C 20.667 20.734,20.730 20.682,21.292 20.635 L 21.917 20.583 21.917 17.333 L 21.917 14.083 21.301 14.032 C 20.723 13.984,20.683 13.944,20.634 13.366 C 20.586 12.787,20.546 12.747,19.968 12.699 C 19.390 12.651,19.349 12.610,19.301 12.032 C 19.253 11.454,19.213 11.414,18.634 11.366 C 18.056 11.317,18.016 11.277,17.968 10.699 C 17.920 10.121,17.879 10.080,17.301 10.032 C 16.723 9.984,16.683 9.944,16.634 9.366 C 16.586 8.786,16.547 8.747,15.961 8.698 C 15.419 8.654,15.320 8.578,15.201 8.120 C 15.110 7.767,14.931 7.557,14.657 7.480 C 13.944 7.281,11.748 7.318,11.533 7.533 M52.353 7.500 C 51.760 7.640,51.507 7.898,51.503 8.365 C 51.501 8.578,51.325 8.660,50.792 8.699 C 50.106 8.748,50.082 8.770,50.032 9.366 C 49.984 9.944,49.944 9.984,49.366 10.032 C 48.787 10.080,48.747 10.121,48.699 10.699 C 48.651 11.277,48.610 11.317,48.032 11.366 C 47.454 11.414,47.414 11.454,47.366 12.032 C 47.317 12.610,47.277 12.651,46.699 12.699 C 46.121 12.747,46.080 12.787,46.032 13.366 C 45.984 13.944,45.944 13.984,45.366 14.032 L 44.750 14.083 44.704 17.145 C 44.655 20.467,44.701 20.667,45.520 20.667 C 45.938 20.667,46.000 20.729,46.000 21.146 C 46.000 21.965,46.200 22.012,49.522 21.962 L 52.583 21.917 52.634 21.301 C 52.683 20.723,52.723 20.683,53.301 20.634 C 53.879 20.586,53.920 20.546,53.968 19.968 C 54.016 19.390,54.056 19.349,54.634 19.301 C 55.213 19.253,55.253 19.213,55.301 18.634 C 55.349 18.056,55.390 18.016,55.968 17.968 C 56.546 17.920,56.586 17.879,56.634 17.301 C 56.683 16.723,56.723 16.683,57.301 16.634 C 57.881 16.586,57.920 16.547,57.968 15.958 C 58.015 15.401,58.069 15.333,58.477 15.333 C 59.250 15.333,59.334 15.099,59.331 12.925 C 59.328 10.388,59.279 10.203,58.574 10.071 C 58.078 9.977,58.013 9.901,57.967 9.358 C 57.919 8.776,57.887 8.748,57.242 8.700 C 56.672 8.659,56.539 8.576,56.386 8.172 C 56.103 7.421,54.101 7.088,52.353 7.500 M78.200 7.533 C 78.090 7.643,78.000 7.940,78.000 8.193 C 78.000 8.651,77.995 8.653,76.708 8.701 L 75.417 8.750 75.333 9.416 C 75.260 10.000,75.189 10.092,74.751 10.167 C 74.130 10.274,74.047 10.601,74.020 13.030 C 73.998 14.966,74.142 15.333,74.919 15.333 C 75.254 15.333,75.321 15.427,75.365 15.958 C 75.414 16.547,75.452 16.586,76.032 16.634 C 76.610 16.683,76.651 16.723,76.699 17.301 C 76.747 17.879,76.787 17.920,77.366 17.968 C 77.944 18.016,77.984 18.056,78.032 18.634 C 78.080 19.213,78.121 19.253,78.699 19.301 C 79.277 19.349,79.317 19.390,79.366 19.968 C 79.414 20.546,79.454 20.586,80.032 20.634 C 80.610 20.683,80.651 20.723,80.699 21.301 L 80.750 21.917 83.812 21.962 C 87.126 22.011,87.333 21.964,87.333 21.156 C 87.333 20.734,87.396 20.682,87.958 20.635 L 88.583 20.583 88.583 17.333 L 88.583 14.083 87.968 14.032 C 87.390 13.984,87.349 13.944,87.301 13.366 C 87.253 12.787,87.213 12.747,86.634 12.699 C 86.056 12.651,86.016 12.610,85.968 12.032 C 85.920 11.454,85.879 11.414,85.301 11.366 C 84.723 11.317,84.683 11.277,84.634 10.699 C 84.586 10.121,84.546 10.080,83.968 10.032 C 83.390 9.984,83.349 9.944,83.301 9.366 C 83.253 8.786,83.214 8.747,82.627 8.698 C 82.085 8.654,81.987 8.578,81.868 8.120 C 81.776 7.767,81.598 7.557,81.324 7.480 C 80.611 7.281,78.415 7.318,78.200 7.533 M119.020 7.500 C 118.427 7.640,118.173 7.898,118.169 8.365 C 118.167 8.578,117.991 8.660,117.458 8.699 C 116.773 8.748,116.748 8.770,116.699 9.366 C 116.651 9.944,116.610 9.984,116.032 10.032 C 115.454 10.080,115.414 10.121,115.366 10.699 C 115.317 11.277,115.277 11.317,114.699 11.366 C 114.121 11.414,114.080 11.454,114.032 12.032 C 113.984 12.610,113.944 12.651,113.366 12.699 C 112.787 12.747,112.747 12.787,112.699 13.366 C 112.651 13.944,112.610 13.984,112.032 14.032 L 111.417 14.083 111.371 17.145 C 111.322 20.467,111.368 20.667,112.187 20.667 C 112.604 20.667,112.667 20.729,112.667 21.146 C 112.667 21.965,112.867 22.012,116.188 21.962 L 119.250 21.917 119.301 21.301 C 119.349 20.723,119.390 20.683,119.968 20.634 C 120.546 20.586,120.586 20.546,120.634 19.968 C 120.683 19.390,120.723 19.349,121.301 19.301 C 121.879 19.253,121.920 19.213,121.968 18.634 C 122.016 18.056,122.056 18.016,122.634 17.968 C 123.213 17.920,123.253 17.879,123.301 17.301 C 123.349 16.723,123.390 16.683,123.968 16.634 C 124.548 16.586,124.586 16.547,124.635 15.958 C 124.681 15.401,124.736 15.333,125.143 15.333 C 125.917 15.333,126.000 15.099,125.998 12.925 C 125.995 10.388,125.946 10.203,125.241 10.071 C 124.744 9.977,124.679 9.901,124.634 9.358 C 124.586 8.776,124.554 8.748,123.909 8.700 C 123.339 8.659,123.206 8.576,123.053 8.172 C 122.770 7.421,120.768 7.088,119.020 7.500 M144.867 7.533 C 144.757 7.643,144.667 7.940,144.667 8.193 C 144.667 8.651,144.662 8.653,143.375 8.701 L 142.083 8.750 142.000 9.416 C 141.927 10.000,141.855 10.092,141.418 10.167 C 140.797 10.274,140.713 10.601,140.686 13.030 C 140.665 14.966,140.808 15.333,141.585 15.333 C 141.921 15.333,141.988 15.427,142.032 15.958 C 142.080 16.547,142.119 16.586,142.699 16.634 C 143.277 16.683,143.317 16.723,143.366 17.301 C 143.414 17.879,143.454 17.920,144.032 17.968 C 144.610 18.016,144.651 18.056,144.699 18.634 C 144.747 19.213,144.787 19.253,145.366 19.301 C 145.944 19.349,145.984 19.390,146.032 19.968 C 146.080 20.546,146.121 20.586,146.699 20.634 C 147.277 20.683,147.317 20.723,147.366 21.301 L 147.417 21.917 150.478 21.962 C 153.793 22.011,154.000 21.964,154.000 21.156 C 154.000 20.734,154.063 20.682,154.625 20.635 L 155.250 20.583 155.250 17.333 L 155.250 14.083 154.634 14.032 C 154.056 13.984,154.016 13.944,153.968 13.366 C 153.920 12.787,153.879 12.747,153.301 12.699 C 152.723 12.651,152.683 12.610,152.634 12.032 C 152.586 11.454,152.546 11.414,151.968 11.366 C 151.390 11.317,151.349 11.277,151.301 10.699 C 151.253 10.121,151.213 10.080,150.634 10.032 C 150.056 9.984,150.016 9.944,149.968 9.366 C 149.920 8.786,149.881 8.747,149.294 8.698 C 148.752 8.654,148.653 8.578,148.535 8.120 C 148.443 7.767,148.265 7.557,147.991 7.480 C 147.277 7.281,145.082 7.318,144.867 7.533 M185.687 7.500 C 185.093 7.640,184.840 7.898,184.836 8.365 C 184.834 8.578,184.658 8.660,184.125 8.699 C 183.440 8.748,183.415 8.770,183.366 9.366 C 183.317 9.944,183.277 9.984,182.699 10.032 C 182.121 10.080,182.080 10.121,182.032 10.699 C 181.984 11.277,181.944 11.317,181.366 11.366 C 180.787 11.414,180.747 11.454,180.699 12.032 C 180.651 12.610,180.610 12.651,180.032 12.699 C 179.454 12.747,179.414 12.787,179.366 13.366 C 179.317 13.944,179.277 13.984,178.699 14.032 L 178.083 14.083 178.038 17.145 C 177.988 20.467,178.035 20.667,178.854 20.667 C 179.271 20.667,179.333 20.729,179.333 21.146 C 179.333 21.965,179.533 22.012,182.855 21.962 L 185.917 21.917 185.968 21.301 C 186.016 20.723,186.056 20.683,186.634 20.634 C 187.213 20.586,187.253 20.546,187.301 19.968 C 187.349 19.390,187.390 19.349,187.968 19.301 C 188.546 19.253,188.586 19.213,188.634 18.634 C 188.683 18.056,188.723 18.016,189.301 17.968 C 189.879 17.920,189.920 17.879,189.968 17.301 C 190.016 16.723,190.056 16.683,190.634 16.634 C 191.215 16.586,191.253 16.547,191.302 15.958 C 191.348 15.401,191.403 15.333,191.810 15.333 C 192.584 15.333,192.667 15.099,192.664 12.925 C 192.662 10.388,192.612 10.203,191.907 10.071 C 191.411 9.977,191.346 9.901,191.301 9.358 C 191.252 8.776,191.221 8.748,190.575 8.700 C 190.006 8.659,189.872 8.576,189.720 8.172 C 189.436 7.421,187.434 7.088,185.687 7.500 M28.009 16.814 C 27.735 16.890,27.557 17.100,27.465 17.457 L 27.327 17.986 26.039 18.035 L 24.750 18.083 24.698 18.708 C 24.648 19.316,24.628 19.333,23.990 19.333 C 23.335 19.333,23.333 19.335,23.333 20.000 L 23.333 20.667 22.667 20.667 L 22.000 20.667 22.000 21.333 L 22.000 22.000 21.333 22.000 L 20.667 22.000 20.667 22.667 L 20.667 23.333 20.000 23.333 L 19.333 23.333 19.333 24.000 C 19.333 24.619,19.300 24.667,18.867 24.667 C 18.161 24.667,18.000 24.947,18.000 26.181 L 18.000 27.296 17.435 27.402 C 16.665 27.547,16.671 27.496,16.671 33.333 C 16.671 39.171,16.665 39.120,17.435 39.264 L 18.000 39.370 18.000 40.485 C 18.000 41.719,18.161 42.000,18.867 42.000 C 19.300 42.000,19.333 42.048,19.333 42.667 L 19.333 43.333 20.000 43.333 L 20.667 43.333 20.667 44.000 L 20.667 44.667 21.333 44.667 L 22.000 44.667 22.000 45.333 L 22.000 46.000 22.667 46.000 L 23.333 46.000 23.333 46.667 C 23.333 47.332,23.335 47.333,23.990 47.333 C 24.628 47.333,24.648 47.351,24.698 47.958 L 24.750 48.583 26.039 48.632 L 27.327 48.681 27.465 49.210 C 27.657 49.952,27.757 49.965,33.417 49.981 C 39.151 49.998,39.120 50.002,39.263 49.238 L 39.368 48.680 40.642 48.632 L 41.917 48.583 41.968 47.958 C 42.019 47.351,42.038 47.333,42.677 47.333 C 43.328 47.333,43.333 47.328,43.333 46.689 L 43.333 46.046 44.432 45.957 C 45.790 45.848,45.848 45.790,45.957 44.432 L 46.046 43.333 46.689 43.333 C 47.328 43.333,47.333 43.328,47.333 42.677 C 47.333 42.038,47.351 42.019,47.958 41.968 L 48.583 41.917 48.632 40.625 C 48.681 39.338,48.682 39.333,49.140 39.333 C 50.001 39.333,50.000 39.343,50.000 33.333 C 50.000 27.323,50.001 27.333,49.140 27.333 C 48.682 27.333,48.681 27.329,48.632 26.042 L 48.583 24.750 47.958 24.698 C 47.351 24.648,47.333 24.628,47.333 23.990 C 47.333 23.339,47.328 23.333,46.689 23.333 L 46.046 23.333 45.957 22.235 C 45.848 20.877,45.790 20.818,44.432 20.709 L 43.333 20.621 43.333 19.977 C 43.333 19.339,43.328 19.333,42.677 19.333 C 42.038 19.333,42.019 19.316,41.968 18.708 L 41.917 18.083 40.642 18.035 L 39.368 17.987 39.263 17.428 C 39.191 17.041,39.045 16.840,38.788 16.771 C 38.277 16.634,28.514 16.673,28.009 16.814 M94.676 16.814 C 94.401 16.890,94.224 17.100,94.131 17.457 L 93.994 17.986 92.705 18.035 L 91.417 18.083 91.365 18.708 C 91.315 19.316,91.295 19.333,90.657 19.333 C 90.002 19.333,90.000 19.335,90.000 20.000 L 90.000 20.667 89.333 20.667 L 88.667 20.667 88.667 21.333 L 88.667 22.000 88.000 22.000 L 87.333 22.000 87.333 22.667 L 87.333 23.333 86.667 23.333 L 86.000 23.333 86.000 24.000 C 86.000 24.619,85.967 24.667,85.533 24.667 C 84.827 24.667,84.667 24.947,84.667 26.181 L 84.667 27.296 84.102 27.402 C 83.331 27.547,83.338 27.496,83.338 33.333 C 83.338 39.171,83.331 39.120,84.102 39.264 L 84.667 39.370 84.667 40.485 C 84.667 41.719,84.827 42.000,85.533 42.000 C 85.967 42.000,86.000 42.048,86.000 42.667 L 86.000 43.333 86.667 43.333 L 87.333 43.333 87.333 44.000 L 87.333 44.667 88.000 44.667 L 88.667 44.667 88.667 45.333 L 88.667 46.000 89.333 46.000 L 90.000 46.000 90.000 46.667 C 90.000 47.332,90.002 47.333,90.657 47.333 C 91.295 47.333,91.315 47.351,91.365 47.958 L 91.417 48.583 92.705 48.632 L 93.994 48.681 94.131 49.210 C 94.324 49.952,94.424 49.965,100.083 49.981 C 105.818 49.998,105.787 50.002,105.930 49.238 L 106.035 48.680 107.309 48.632 L 108.583 48.583 108.635 47.958 C 108.685 47.351,108.705 47.333,109.343 47.333 C 109.994 47.333,110.000 47.328,110.000 46.689 L 110.000 46.046 111.099 45.957 C 112.456 45.848,112.515 45.790,112.624 44.432 L 112.712 43.333 113.356 43.333 C 113.995 43.333,114.000 43.328,114.000 42.677 C 114.000 42.038,114.017 42.019,114.625 41.968 L 115.250 41.917 115.299 40.625 C 115.347 39.338,115.349 39.333,115.807 39.333 C 116.668 39.333,116.667 39.343,116.667 33.333 C 116.667 27.323,116.668 27.333,115.807 27.333 C 115.349 27.333,115.347 27.329,115.299 26.042 L 115.250 24.750 114.625 24.698 C 114.017 24.648,114.000 24.628,114.000 23.990 C 114.000 23.339,113.995 23.333,113.356 23.333 L 112.712 23.333 112.624 22.235 C 112.515 20.877,112.456 20.818,111.099 20.709 L 110.000 20.621 110.000 19.977 C 110.000 19.339,109.994 19.333,109.343 19.333 C 108.705 19.333,108.685 19.316,108.635 18.708 L 108.583 18.083 107.309 18.035 L 106.035 17.987 105.930 17.428 C 105.857 17.041,105.711 16.840,105.454 16.771 C 104.944 16.634,95.181 16.673,94.676 16.814 M161.343 16.814 C 161.068 16.890,160.890 17.100,160.798 17.457 L 160.661 17.986 159.372 18.035 L 158.083 18.083 158.032 18.708 C 157.981 19.316,157.962 19.333,157.323 19.333 C 156.668 19.333,156.667 19.335,156.667 20.000 L 156.667 20.667 156.000 20.667 L 155.333 20.667 155.333 21.333 L 155.333 22.000 154.667 22.000 L 154.000 22.000 154.000 22.667 L 154.000 23.333 153.333 23.333 L 152.667 23.333 152.667 24.000 C 152.667 24.619,152.633 24.667,152.200 24.667 C 151.494 24.667,151.333 24.947,151.333 26.181 L 151.333 27.296 150.768 27.402 C 149.998 27.547,150.005 27.496,150.005 33.333 C 150.005 39.171,149.998 39.120,150.768 39.264 L 151.333 39.370 151.333 40.485 C 151.333 41.719,151.494 42.000,152.200 42.000 C 152.633 42.000,152.667 42.048,152.667 42.667 L 152.667 43.333 153.333 43.333 L 154.000 43.333 154.000 44.000 L 154.000 44.667 154.667 44.667 L 155.333 44.667 155.333 45.333 L 155.333 46.000 156.000 46.000 L 156.667 46.000 156.667 46.667 C 156.667 47.332,156.668 47.333,157.323 47.333 C 157.962 47.333,157.981 47.351,158.032 47.958 L 158.083 48.583 159.372 48.632 L 160.661 48.681 160.798 49.210 C 160.990 49.952,161.090 49.965,166.750 49.981 C 172.485 49.998,172.453 50.002,172.597 49.238 L 172.701 48.680 173.976 48.632 L 175.250 48.583 175.302 47.958 C 175.352 47.351,175.372 47.333,176.010 47.333 C 176.661 47.333,176.667 47.328,176.667 46.689 L 176.667 46.046 177.765 45.957 C 179.123 45.848,179.182 45.790,179.291 44.432 L 179.379 43.333 180.023 43.333 C 180.661 43.333,180.667 43.328,180.667 42.677 C 180.667 42.038,180.684 42.019,181.292 41.968 L 181.917 41.917 181.965 40.625 C 182.014 39.338,182.016 39.333,182.474 39.333 C 183.335 39.333,183.333 39.343,183.333 33.333 C 183.333 27.323,183.335 27.333,182.474 27.333 C 182.016 27.333,182.014 27.329,181.965 26.042 L 181.917 24.750 181.292 24.698 C 180.684 24.648,180.667 24.628,180.667 23.990 C 180.667 23.339,180.661 23.333,180.023 23.333 L 179.379 23.333 179.291 22.235 C 179.182 20.877,179.123 20.818,177.765 20.709 L 176.667 20.621 176.667 19.977 C 176.667 19.339,176.661 19.333,176.010 19.333 C 175.372 19.333,175.352 19.316,175.302 18.708 L 175.250 18.083 173.976 18.035 L 172.701 17.987 172.597 17.428 C 172.524 17.041,172.378 16.840,172.121 16.771 C 171.610 16.634,161.847 16.673,161.343 16.814 M35.691 27.333 C 36.648 27.333,36.667 27.342,36.667 27.800 C 36.667 28.392,36.941 28.667,37.533 28.667 C 37.916 28.667,38.000 28.739,38.000 29.071 C 38.000 29.589,38.411 30.000,38.929 30.000 C 39.315 30.000,39.333 30.048,39.333 31.071 C 39.333 32.257,39.572 32.667,40.262 32.667 C 40.623 32.667,40.667 32.739,40.667 33.333 C 40.667 33.928,40.623 34.000,40.262 34.000 C 39.572 34.000,39.333 34.410,39.333 35.595 C 39.333 36.619,39.315 36.667,38.929 36.667 C 38.411 36.667,38.000 37.077,38.000 37.595 C 38.000 37.927,37.916 38.000,37.533 38.000 C 36.947 38.000,36.667 38.274,36.667 38.844 L 36.667 39.289 35.000 39.369 C 34.083 39.413,32.583 39.413,31.667 39.369 L 30.000 39.289 30.000 38.844 C 30.000 38.274,29.719 38.000,29.133 38.000 C 28.733 38.000,28.667 37.933,28.667 37.533 C 28.667 36.941,28.392 36.667,27.800 36.667 C 27.335 36.667,27.333 36.663,27.333 35.533 C 27.333 34.280,27.175 34.000,26.467 34.000 C 26.033 34.000,26.000 33.952,26.000 33.333 C 26.000 32.714,26.033 32.667,26.467 32.667 C 27.175 32.667,27.333 32.387,27.333 31.133 C 27.333 30.003,27.335 30.000,27.800 30.000 C 28.392 30.000,28.667 29.726,28.667 29.133 C 28.667 28.733,28.733 28.667,29.133 28.667 C 29.724 28.667,30.000 28.392,30.000 27.807 C 30.000 27.303,31.243 27.125,33.733 27.274 C 34.273 27.307,35.155 27.333,35.691 27.333 M102.358 27.333 C 103.315 27.333,103.333 27.342,103.333 27.800 C 103.333 28.392,103.608 28.667,104.200 28.667 C 104.583 28.667,104.667 28.739,104.667 29.071 C 104.667 29.589,105.077 30.000,105.595 30.000 C 105.982 30.000,106.000 30.048,106.000 31.071 C 106.000 32.257,106.239 32.667,106.929 32.667 C 107.290 32.667,107.333 32.739,107.333 33.333 C 107.333 33.928,107.290 34.000,106.929 34.000 C 106.239 34.000,106.000 34.410,106.000 35.595 C 106.000 36.619,105.982 36.667,105.595 36.667 C 105.077 36.667,104.667 37.077,104.667 37.595 C 104.667 37.927,104.583 38.000,104.200 38.000 C 103.614 38.000,103.333 38.274,103.333 38.844 L 103.333 39.289 101.667 39.369 C 100.750 39.413,99.250 39.413,98.333 39.369 L 96.667 39.289 96.667 38.844 C 96.667 38.274,96.386 38.000,95.800 38.000 C 95.400 38.000,95.333 37.933,95.333 37.533 C 95.333 36.941,95.059 36.667,94.467 36.667 C 94.001 36.667,94.000 36.663,94.000 35.533 C 94.000 34.280,93.842 34.000,93.133 34.000 C 92.700 34.000,92.667 33.952,92.667 33.333 C 92.667 32.714,92.700 32.667,93.133 32.667 C 93.842 32.667,94.000 32.387,94.000 31.133 C 94.000 30.003,94.001 30.000,94.467 30.000 C 95.059 30.000,95.333 29.726,95.333 29.133 C 95.333 28.733,95.400 28.667,95.800 28.667 C 96.390 28.667,96.667 28.392,96.667 27.807 C 96.667 27.303,97.910 27.125,100.399 27.274 C 100.940 27.307,101.821 27.333,102.358 27.333 M169.024 27.333 C 169.982 27.333,170.000 27.342,170.000 27.800 C 170.000 28.392,170.274 28.667,170.867 28.667 C 171.250 28.667,171.333 28.739,171.333 29.071 C 171.333 29.589,171.744 30.000,172.262 30.000 C 172.649 30.000,172.667 30.048,172.667 31.071 C 172.667 32.257,172.905 32.667,173.595 32.667 C 173.956 32.667,174.000 32.739,174.000 33.333 C 174.000 33.928,173.956 34.000,173.595 34.000 C 172.905 34.000,172.667 34.410,172.667 35.595 C 172.667 36.619,172.649 36.667,172.262 36.667 C 171.744 36.667,171.333 37.077,171.333 37.595 C 171.333 37.927,171.250 38.000,170.867 38.000 C 170.281 38.000,170.000 38.274,170.000 38.844 L 170.000 39.289 168.333 39.369 C 167.417 39.413,165.917 39.413,165.000 39.369 L 163.333 39.289 163.333 38.844 C 163.333 38.274,163.053 38.000,162.467 38.000 C 162.067 38.000,162.000 37.933,162.000 37.533 C 162.000 36.941,161.726 36.667,161.133 36.667 C 160.668 36.667,160.667 36.663,160.667 35.533 C 160.667 34.280,160.509 34.000,159.800 34.000 C 159.367 34.000,159.333 33.952,159.333 33.333 C 159.333 32.714,159.367 32.667,159.800 32.667 C 160.509 32.667,160.667 32.387,160.667 31.133 C 160.667 30.003,160.668 30.000,161.133 30.000 C 161.726 30.000,162.000 29.726,162.000 29.133 C 162.000 28.733,162.067 28.667,162.467 28.667 C 163.057 28.667,163.333 28.392,163.333 27.807 C 163.333 27.303,164.577 27.125,167.066 27.274 C 167.607 27.307,168.488 27.333,169.024 27.333 M0.778 28.778 C 0.717 28.839,0.667 29.139,0.667 29.444 C 0.667 29.889,0.600 30.000,0.333 30.000 C 0.011 30.000,0.000 30.111,0.000 33.333 C 0.000 36.521,0.014 36.667,0.323 36.667 C 0.577 36.667,0.658 36.802,0.698 37.292 L 0.750 37.917 6.708 37.960 C 12.397 38.002,12.667 37.990,12.667 37.698 C 12.667 37.322,13.336 36.667,13.719 36.667 C 13.936 36.667,14.000 36.514,14.000 36.000 C 14.000 35.381,14.033 35.333,14.467 35.333 C 15.223 35.333,15.333 35.079,15.333 33.333 C 15.333 31.588,15.223 31.333,14.467 31.333 C 14.033 31.333,14.000 31.286,14.000 30.667 C 14.000 30.132,13.940 30.000,13.696 30.000 C 13.322 30.000,12.667 29.330,12.667 28.948 C 12.667 28.657,1.064 28.492,0.778 28.778 M54.113 28.776 C 54.051 28.838,54.000 29.139,54.000 29.444 C 54.000 29.981,53.978 30.000,53.333 30.000 C 52.670 30.000,52.667 30.003,52.667 30.648 C 52.667 31.253,52.629 31.303,52.102 31.402 C 51.436 31.527,51.338 31.774,51.338 33.333 C 51.338 34.892,51.436 35.139,52.102 35.264 C 52.629 35.363,52.667 35.414,52.667 36.019 C 52.667 36.662,52.671 36.667,53.323 36.667 C 53.962 36.667,53.981 36.684,54.032 37.292 L 54.083 37.917 60.000 37.917 L 65.917 37.917 65.968 37.292 C 66.019 36.686,66.040 36.667,66.667 36.667 C 67.293 36.667,67.315 36.686,67.365 37.292 L 67.417 37.917 73.375 37.960 C 79.063 38.002,79.333 37.990,79.333 37.698 C 79.333 37.322,80.002 36.667,80.386 36.667 C 80.602 36.667,80.667 36.514,80.667 36.000 C 80.667 35.381,80.700 35.333,81.133 35.333 C 81.890 35.333,82.000 35.079,82.000 33.333 C 82.000 31.588,81.890 31.333,81.133 31.333 C 80.700 31.333,80.667 31.286,80.667 30.667 C 80.667 30.132,80.606 30.000,80.362 30.000 C 79.987 30.000,79.333 29.330,79.333 28.945 C 79.333 28.684,78.886 28.666,73.375 28.706 L 67.417 28.750 67.365 29.375 C 67.315 29.981,67.293 30.000,66.667 30.000 C 66.040 30.000,66.019 29.981,65.968 29.375 L 65.917 28.750 60.072 28.706 C 56.857 28.682,54.175 28.713,54.113 28.776 M120.780 28.776 C 120.718 28.838,120.667 29.139,120.667 29.444 C 120.667 29.981,120.644 30.000,120.000 30.000 C 119.337 30.000,119.333 30.003,119.333 30.648 C 119.333 31.253,119.296 31.303,118.768 31.402 C 118.102 31.527,118.005 31.774,118.005 33.333 C 118.005 34.892,118.102 35.139,118.768 35.264 C 119.296 35.363,119.333 35.414,119.333 36.019 C 119.333 36.662,119.338 36.667,119.990 36.667 C 120.628 36.667,120.648 36.684,120.698 37.292 L 120.750 37.917 126.667 37.917 L 132.583 37.917 132.635 37.292 C 132.685 36.686,132.707 36.667,133.333 36.667 C 133.960 36.667,133.981 36.686,134.032 37.292 L 134.083 37.917 140.042 37.960 C 145.730 38.002,146.000 37.990,146.000 37.698 C 146.000 37.322,146.669 36.667,147.052 36.667 C 147.269 36.667,147.333 36.514,147.333 36.000 C 147.333 35.381,147.367 35.333,147.800 35.333 C 148.556 35.333,148.667 35.079,148.667 33.333 C 148.667 31.588,148.556 31.333,147.800 31.333 C 147.367 31.333,147.333 31.286,147.333 30.667 C 147.333 30.132,147.273 30.000,147.029 30.000 C 146.654 30.000,146.000 29.330,146.000 28.945 C 146.000 28.684,145.553 28.666,140.042 28.706 L 134.083 28.750 134.032 29.375 C 133.981 29.981,133.960 30.000,133.333 30.000 C 132.707 30.000,132.685 29.981,132.635 29.375 L 132.583 28.750 126.738 28.706 C 123.523 28.682,120.842 28.713,120.780 28.776 M187.447 28.776 C 187.384 28.838,187.333 29.139,187.333 29.444 C 187.333 29.981,187.311 30.000,186.667 30.000 C 186.003 30.000,186.000 30.003,186.000 30.648 C 186.000 31.253,185.962 31.303,185.435 31.402 C 184.769 31.527,184.671 31.774,184.671 33.333 C 184.671 34.892,184.769 35.139,185.435 35.264 C 185.962 35.363,186.000 35.414,186.000 36.019 C 186.000 36.662,186.005 36.667,186.657 36.667 C 187.295 36.667,187.315 36.684,187.365 37.292 L 187.417 37.917 193.333 37.917 L 199.250 37.917 199.361 37.167 C 199.422 36.754,199.590 35.967,199.734 35.417 C 200.086 34.066,200.066 32.484,199.679 31.080 C 199.502 30.440,199.334 29.654,199.304 29.333 L 199.250 28.750 193.405 28.706 C 190.190 28.682,187.509 28.713,187.447 28.776 M14.111 44.778 C 14.050 44.839,14.000 45.134,14.000 45.434 C 14.000 45.944,13.959 45.983,13.375 46.032 C 12.786 46.080,12.747 46.119,12.699 46.699 C 12.651 47.277,12.610 47.317,12.032 47.366 C 11.454 47.414,11.414 47.454,11.366 48.032 C 11.317 48.610,11.277 48.651,10.699 48.699 C 10.121 48.747,10.080 48.787,10.032 49.366 C 9.984 49.944,9.944 49.984,9.366 50.032 C 8.785 50.080,8.747 50.119,8.698 50.708 C 8.654 51.240,8.588 51.333,8.252 51.333 C 7.475 51.333,7.332 51.701,7.353 53.637 C 7.380 56.066,7.464 56.393,8.085 56.500 C 8.522 56.575,8.594 56.667,8.667 57.251 L 8.750 57.917 10.042 57.965 C 11.329 58.014,11.333 58.016,11.333 58.474 C 11.333 59.196,11.606 59.335,12.992 59.317 C 14.717 59.294,15.036 59.183,15.201 58.546 C 15.320 58.088,15.419 58.013,15.961 57.968 C 16.547 57.920,16.586 57.881,16.634 57.301 C 16.683 56.723,16.723 56.683,17.301 56.634 C 17.879 56.586,17.920 56.546,17.968 55.968 C 18.016 55.390,18.056 55.349,18.634 55.301 C 19.213 55.253,19.253 55.213,19.301 54.634 C 19.349 54.056,19.390 54.016,19.968 53.968 C 20.546 53.920,20.586 53.879,20.634 53.301 C 20.683 52.723,20.723 52.683,21.301 52.634 L 21.917 52.583 21.917 49.333 L 21.917 46.083 21.292 46.032 C 20.734 45.985,20.667 45.931,20.667 45.523 C 20.667 44.709,20.496 44.667,17.244 44.667 C 15.582 44.667,14.172 44.717,14.111 44.778 M46.204 44.863 C 46.092 44.975,46.000 45.277,46.000 45.533 C 46.000 45.936,45.935 46.000,45.520 46.000 C 44.701 46.000,44.655 46.200,44.704 49.522 L 44.750 52.583 45.366 52.634 C 45.944 52.683,45.984 52.723,46.032 53.301 C 46.080 53.879,46.121 53.920,46.699 53.968 C 47.277 54.016,47.317 54.056,47.366 54.634 C 47.414 55.213,47.454 55.253,48.032 55.301 C 48.610 55.349,48.651 55.390,48.699 55.968 C 48.747 56.546,48.787 56.586,49.366 56.634 C 49.944 56.683,49.984 56.723,50.032 57.301 C 50.081 57.894,50.109 57.919,50.773 57.967 C 51.379 58.011,51.473 58.074,51.556 58.488 C 51.787 59.644,55.950 59.652,56.386 58.496 C 56.539 58.090,56.672 58.008,57.242 57.966 C 57.887 57.919,57.919 57.890,57.967 57.309 C 58.013 56.765,58.078 56.689,58.574 56.596 C 59.279 56.464,59.328 56.279,59.331 53.742 C 59.334 51.568,59.250 51.333,58.477 51.333 C 58.069 51.333,58.015 51.266,57.968 50.708 C 57.920 50.119,57.881 50.080,57.301 50.032 C 56.723 49.984,56.683 49.944,56.634 49.366 C 56.586 48.787,56.546 48.747,55.968 48.699 C 55.390 48.651,55.349 48.610,55.301 48.032 C 55.253 47.454,55.213 47.414,54.634 47.366 C 54.056 47.317,54.016 47.277,53.968 46.699 C 53.920 46.121,53.879 46.080,53.301 46.032 C 52.723 45.984,52.683 45.944,52.634 45.366 L 52.583 44.750 49.495 44.705 C 47.234 44.672,46.353 44.714,46.204 44.863 M80.778 44.778 C 80.717 44.839,80.667 45.134,80.667 45.434 C 80.667 45.944,80.626 45.983,80.042 46.032 C 79.453 46.080,79.414 46.119,79.366 46.699 C 79.317 47.277,79.277 47.317,78.699 47.366 C 78.121 47.414,78.080 47.454,78.032 48.032 C 77.984 48.610,77.944 48.651,77.366 48.699 C 76.787 48.747,76.747 48.787,76.699 49.366 C 76.651 49.944,76.610 49.984,76.032 50.032 C 75.452 50.080,75.414 50.119,75.365 50.708 C 75.321 51.240,75.254 51.333,74.919 51.333 C 74.142 51.333,73.998 51.701,74.020 53.637 C 74.047 56.066,74.130 56.393,74.751 56.500 C 75.189 56.575,75.260 56.667,75.333 57.251 L 75.417 57.917 76.708 57.965 C 77.995 58.014,78.000 58.016,78.000 58.474 C 78.000 59.196,78.273 59.335,79.658 59.317 C 81.384 59.294,81.703 59.183,81.868 58.546 C 81.987 58.088,82.085 58.013,82.627 57.968 C 83.214 57.920,83.253 57.881,83.301 57.301 C 83.349 56.723,83.390 56.683,83.968 56.634 C 84.546 56.586,84.586 56.546,84.634 55.968 C 84.683 55.390,84.723 55.349,85.301 55.301 C 85.879 55.253,85.920 55.213,85.968 54.634 C 86.016 54.056,86.056 54.016,86.634 53.968 C 87.213 53.920,87.253 53.879,87.301 53.301 C 87.349 52.723,87.390 52.683,87.968 52.634 L 88.583 52.583 88.583 49.333 L 88.583 46.083 87.958 46.032 C 87.401 45.985,87.333 45.931,87.333 45.523 C 87.333 44.709,87.163 44.667,83.911 44.667 C 82.249 44.667,80.839 44.717,80.778 44.778 M112.870 44.863 C 112.758 44.975,112.667 45.277,112.667 45.533 C 112.667 45.936,112.601 46.000,112.187 46.000 C 111.368 46.000,111.322 46.200,111.371 49.522 L 111.417 52.583 112.032 52.634 C 112.610 52.683,112.651 52.723,112.699 53.301 C 112.747 53.879,112.787 53.920,113.366 53.968 C 113.944 54.016,113.984 54.056,114.032 54.634 C 114.080 55.213,114.121 55.253,114.699 55.301 C 115.277 55.349,115.317 55.390,115.366 55.968 C 115.414 56.546,115.454 56.586,116.032 56.634 C 116.610 56.683,116.651 56.723,116.699 57.301 C 116.748 57.894,116.776 57.919,117.439 57.967 C 118.046 58.011,118.140 58.074,118.223 58.488 C 118.454 59.644,122.616 59.652,123.052 58.496 C 123.206 58.090,123.339 58.008,123.909 57.966 C 124.554 57.919,124.586 57.890,124.634 57.309 C 124.679 56.765,124.744 56.689,125.241 56.596 C 125.946 56.464,125.995 56.279,125.998 53.742 C 126.000 51.568,125.917 51.333,125.143 51.333 C 124.736 51.333,124.681 51.266,124.635 50.708 C 124.586 50.119,124.548 50.080,123.968 50.032 C 123.390 49.984,123.349 49.944,123.301 49.366 C 123.253 48.787,123.213 48.747,122.634 48.699 C 122.056 48.651,122.016 48.610,121.968 48.032 C 121.920 47.454,121.879 47.414,121.301 47.366 C 120.723 47.317,120.683 47.277,120.634 46.699 C 120.586 46.121,120.546 46.080,119.968 46.032 C 119.390 45.984,119.349 45.944,119.301 45.366 L 119.250 44.750 116.162 44.705 C 113.901 44.672,113.019 44.714,112.870 44.863 M147.444 44.778 C 147.383 44.839,147.333 45.134,147.333 45.434 C 147.333 45.944,147.293 45.983,146.708 46.032 C 146.119 46.080,146.080 46.119,146.032 46.699 C 145.984 47.277,145.944 47.317,145.366 47.366 C 144.787 47.414,144.747 47.454,144.699 48.032 C 144.651 48.610,144.610 48.651,144.032 48.699 C 143.454 48.747,143.414 48.787,143.366 49.366 C 143.317 49.944,143.277 49.984,142.699 50.032 C 142.119 50.080,142.080 50.119,142.032 50.708 C 141.988 51.240,141.921 51.333,141.585 51.333 C 140.808 51.333,140.665 51.701,140.686 53.637 C 140.713 56.066,140.797 56.393,141.418 56.500 C 141.855 56.575,141.927 56.667,142.000 57.251 L 142.083 57.917 143.375 57.965 C 144.662 58.014,144.667 58.016,144.667 58.474 C 144.667 59.196,144.940 59.335,146.325 59.317 C 148.050 59.294,148.370 59.183,148.535 58.546 C 148.653 58.088,148.752 58.013,149.294 57.968 C 149.881 57.920,149.920 57.881,149.968 57.301 C 150.016 56.723,150.056 56.683,150.634 56.634 C 151.213 56.586,151.253 56.546,151.301 55.968 C 151.349 55.390,151.390 55.349,151.968 55.301 C 152.546 55.253,152.586 55.213,152.634 54.634 C 152.683 54.056,152.723 54.016,153.301 53.968 C 153.879 53.920,153.920 53.879,153.968 53.301 C 154.016 52.723,154.056 52.683,154.634 52.634 L 155.250 52.583 155.250 49.333 L 155.250 46.083 154.625 46.032 C 154.067 45.985,154.000 45.931,154.000 45.523 C 154.000 44.709,153.830 44.667,150.578 44.667 C 148.916 44.667,147.506 44.717,147.444 44.778 M179.537 44.863 C 179.425 44.975,179.333 45.277,179.333 45.533 C 179.333 45.936,179.268 46.000,178.854 46.000 C 178.035 46.000,177.988 46.200,178.038 49.522 L 178.083 52.583 178.699 52.634 C 179.277 52.683,179.317 52.723,179.366 53.301 C 179.414 53.879,179.454 53.920,180.032 53.968 C 180.610 54.016,180.651 54.056,180.699 54.634 C 180.747 55.213,180.787 55.253,181.366 55.301 C 181.944 55.349,181.984 55.390,182.032 55.968 C 182.080 56.546,182.121 56.586,182.699 56.634 C 183.277 56.683,183.317 56.723,183.366 57.301 C 183.415 57.894,183.442 57.919,184.106 57.967 C 184.712 58.011,184.806 58.074,184.889 58.488 C 185.120 59.644,189.283 59.652,189.719 58.496 C 189.872 58.090,190.005 58.008,190.575 57.966 C 191.221 57.919,191.252 57.890,191.301 57.309 C 191.346 56.765,191.411 56.689,191.907 56.596 C 192.612 56.464,192.662 56.279,192.664 53.742 C 192.667 51.568,192.584 51.333,191.810 51.333 C 191.403 51.333,191.348 51.266,191.302 50.708 C 191.253 50.119,191.215 50.080,190.634 50.032 C 190.056 49.984,190.016 49.944,189.968 49.366 C 189.920 48.787,189.879 48.747,189.301 48.699 C 188.723 48.651,188.683 48.610,188.634 48.032 C 188.586 47.454,188.546 47.414,187.968 47.366 C 187.390 47.317,187.349 47.277,187.301 46.699 C 187.253 46.121,187.213 46.080,186.634 46.032 C 186.056 45.984,186.016 45.944,185.968 45.366 L 185.917 44.750 182.829 44.705 C 180.567 44.672,179.686 44.714,179.537 44.863 M31.533 51.533 C 31.423 51.643,31.333 51.933,31.333 52.177 C 31.333 52.593,31.276 52.626,30.389 52.718 C 28.663 52.896,28.750 52.525,28.750 59.713 L 28.750 65.917 29.375 65.968 C 29.865 66.009,30.000 66.090,30.000 66.343 C 30.000 66.653,30.146 66.667,33.333 66.667 C 36.521 66.667,36.667 66.653,36.667 66.343 C 36.667 66.090,36.802 66.009,37.292 65.968 L 37.917 65.917 37.917 59.550 C 37.917 52.337,38.025 52.837,36.432 52.709 C 35.375 52.624,35.333 52.604,35.333 52.177 C 35.333 51.933,35.243 51.643,35.133 51.533 C 34.861 51.261,31.806 51.261,31.533 51.533 M98.200 51.533 C 98.090 51.643,98.000 51.933,98.000 52.177 C 98.000 52.593,97.943 52.626,97.055 52.718 C 95.330 52.896,95.417 52.525,95.417 59.713 L 95.417 65.917 96.042 65.968 C 96.531 66.009,96.667 66.090,96.667 66.343 C 96.667 66.653,96.812 66.667,100.000 66.667 C 103.188 66.667,103.333 66.653,103.333 66.343 C 103.333 66.090,103.469 66.009,103.958 65.968 L 104.583 65.917 104.583 59.550 C 104.583 52.337,104.692 52.837,103.099 52.709 C 102.042 52.624,102.000 52.604,102.000 52.177 C 102.000 51.933,101.910 51.643,101.800 51.533 C 101.528 51.261,98.472 51.261,98.200 51.533 M164.867 51.533 C 164.757 51.643,164.667 51.933,164.667 52.177 C 164.667 52.593,164.609 52.626,163.722 52.718 C 161.996 52.896,162.083 52.525,162.083 59.713 L 162.083 65.917 162.708 65.968 C 163.198 66.009,163.333 66.090,163.333 66.343 C 163.333 66.653,163.479 66.667,166.667 66.667 C 169.854 66.667,170.000 66.653,170.000 66.343 C 170.000 66.090,170.135 66.009,170.625 65.968 L 171.250 65.917 171.250 59.550 C 171.250 52.337,171.358 52.837,169.765 52.709 C 168.709 52.624,168.667 52.604,168.667 52.177 C 168.667 51.933,168.577 51.643,168.467 51.533 C 168.194 51.261,165.139 51.261,164.867 51.533 " stroke="none" fill="#040404" fill-rule="evenodd"></path></g></svg>